<?xml version="1.0" encoding="UTF-8"?>
<svg width="209px" height="137px" viewBox="0 0 209 137" version="1.1" xmlns="http://www.w3.org/2000/svg" xmlns:xlink="http://www.w3.org/1999/xlink">
    <!-- Generator: Sketch 62 (91390) - https://sketch.com -->
    <title>bike-il</title>
    <desc>Created with Sketch.</desc>
    <g id="Page-1" stroke="none" stroke-width="1" fill="none" fill-rule="evenodd">
        <g id="bike-il" fill-rule="nonzero">
            <polygon id="Fill-193" fill="#A0ACB0" points="42.14605 131.868 43.11505 131.868 43.11505 60.337 42.14605 60.337"></polygon>
            <polygon id="Fill-194" fill="#A0ACB0" points="6.86604998 96.587 78.39705 96.587 78.39705 95.618 6.86604998 95.618"></polygon>
            <polyline id="Fill-195" fill="#A0ACB0" points="68.26405 121.05 67.57905 121.734 16.99905 71.154 17.68405 70.47 68.26405 121.05"></polyline>
            <polyline id="Fill-196" fill="#A0ACB0" points="17.68405 121.734 16.99905 121.05 67.57905 70.47 68.26405 71.154 17.68405 121.734"></polyline>
            <polyline id="Fill-197" fill="#A0ACB0" points="9.82204998 110.349 9.44804998 109.455 75.44005 81.855 75.81405 82.749 9.82204998 110.349"></polyline>
            <polyline id="Fill-198" fill="#A0ACB0" points="28.38405 63.293 29.27805 62.919 56.87805 128.911 55.98405 129.285 28.38405 63.293"></polyline>
            <polyline id="Fill-199" fill="#A0ACB0" points="29.50505 129.376 28.60905 129.008 55.75705 62.829 56.65305 63.196 29.50505 129.376"></polyline>
            <polyline id="Fill-200" fill="#A0ACB0" points="9.35804998 82.977 9.72504998 82.08 75.90405 109.228 75.53705 110.124 9.35804998 82.977"></polyline>
            <path d="M42.63105,129.841 C23.99705,129.841 8.89204998,114.736 8.89204998,96.103 C8.89204998,77.468 23.99705,62.363 42.63105,62.363 C61.26505,62.363 76.37005,77.468 76.37005,96.103 C76.37005,114.736 61.26505,129.841 42.63105,129.841 Z M42.63105,55.894 C20.42405,55.894 2.42204998,73.896 2.42204998,96.103 C2.42204998,118.309 20.42405,136.311 42.63105,136.311 C64.83805,136.311 82.83905,118.309 82.83905,96.103 C82.83905,73.896 64.83805,55.894 42.63105,55.894 L42.63105,55.894 Z" id="Fill-201" fill="#0A0B09"></path>
            <path d="M42.63105,66.039 C26.05405,66.039 12.56805,79.525 12.56805,96.103 C12.56805,112.679 26.05405,126.165 42.63105,126.165 C59.20805,126.165 72.69405,112.679 72.69405,96.103 C72.69405,79.525 59.20805,66.039 42.63105,66.039 Z M42.63105,127.376 C25.38705,127.376 11.35705,113.347 11.35705,96.103 C11.35705,78.857 25.38705,64.828 42.63105,64.828 C59.87505,64.828 73.90505,78.857 73.90505,96.103 C73.90505,113.347 59.87505,127.376 42.63105,127.376 L42.63105,127.376 Z" id="Fill-202" fill="#0A0B09"></path>
            <polygon id="Fill-203" fill="#B8C2C6" points="167.78605 131.868 168.75505 131.868 168.75505 60.337 167.78605 60.337"></polygon>
            <polygon id="Fill-204" fill="#B8C2C6" points="132.50505 96.587 204.03605 96.587 204.03605 95.618 132.50505 95.618"></polygon>
            <polyline id="Fill-205" fill="#A0ACB0" points="193.90305 121.05 193.21805 121.734 142.63805 71.154 143.32305 70.47 193.90305 121.05"></polyline>
            <polyline id="Fill-206" fill="#A0ACB0" points="143.32305 121.734 142.63805 121.05 193.21805 70.47 193.90305 71.154 143.32305 121.734"></polyline>
            <polyline id="Fill-207" fill="#A0ACB0" points="135.46105 110.349 135.08705 109.455 201.08005 81.855 201.45405 82.749 135.46105 110.349"></polyline>
            <polyline id="Fill-208" fill="#A0ACB0" points="154.02405 63.293 154.91805 62.919 182.51705 128.911 181.62405 129.285 154.02405 63.293"></polyline>
            <polyline id="Fill-209" fill="#A0ACB0" points="155.14505 129.376 154.24905 129.008 181.39605 62.829 182.29305 63.196 155.14505 129.376"></polyline>
            <polyline id="Fill-210" fill="#A0ACB0" points="134.99705 82.977 135.36505 82.08 201.54405 109.228 201.17605 110.124 134.99705 82.977"></polyline>
            <path d="M168.27105,129.841 C149.63705,129.841 134.53205,114.736 134.53205,96.103 C134.53205,77.468 149.63705,62.363 168.27105,62.363 C186.90505,62.363 202.00905,77.468 202.00905,96.103 C202.00905,114.736 186.90505,129.841 168.27105,129.841 Z M168.27105,55.894 C146.06405,55.894 128.06205,73.896 128.06205,96.103 C128.06205,118.309 146.06405,136.311 168.27105,136.311 C190.47805,136.311 208.47905,118.309 208.47905,96.103 C208.47905,73.896 190.47805,55.894 168.27105,55.894 L168.27105,55.894 Z" id="Fill-211" fill="#0A0B09"></path>
            <path d="M168.27105,66.039 C151.69405,66.039 138.20805,79.525 138.20805,96.103 C138.20805,112.679 151.69405,126.165 168.27105,126.165 C184.84705,126.165 198.33405,112.679 198.33405,96.103 C198.33405,79.525 184.84705,66.039 168.27105,66.039 Z M168.27105,127.376 C151.02605,127.376 136.99705,113.347 136.99705,96.103 C136.99705,78.857 151.02605,64.828 168.27105,64.828 C185.51505,64.828 199.54405,78.857 199.54405,96.103 C199.54405,113.347 185.51505,127.376 168.27105,127.376 L168.27105,127.376 Z" id="Fill-212" fill="#0A0B09"></path>
            <path d="M70.32605,50.895 C70.17505,50.895 70.02205,50.88 69.86805,50.851 C68.55405,50.6 67.69305,49.331 67.94405,48.017 C68.71805,43.969 67.72905,40.95 64.91905,38.789 C62.75805,37.126 60.32405,36.627 60.30005,36.622 C58.98505,36.372 58.12405,35.104 58.37405,33.789 C58.62405,32.476 59.89405,31.614 61.20705,31.863 C61.35105,31.891 64.77405,32.563 67.87405,34.949 C70.85705,37.245 74.11605,41.533 72.70205,48.927 C72.48005,50.087 71.46505,50.895 70.32605,50.895" id="Fill-213" fill="#A0ACB0"></path>
            <path d="M140.89305,50.895 C140.18005,50.895 139.47305,50.58 138.99505,49.978 C132.70805,42.059 130.19705,34.009 131.53405,26.053 C133.79605,12.589 146.27205,4.508 146.80205,4.171 C147.93005,3.452 149.42805,3.784 150.14705,4.913 C150.86405,6.04 150.53305,7.536 149.40705,8.255 C149.29505,8.327 138.19005,15.563 136.30605,26.887 C135.21905,33.423 137.40005,40.178 142.78905,46.966 C143.62005,48.014 143.44505,49.537 142.39805,50.369 C141.95205,50.723 141.42105,50.895 140.89305,50.895" id="Fill-214" fill="#A0ACB0"></path>
            <path d="M2.42004998,76.653 C1.94004998,76.653 1.45404998,76.51 1.03104998,76.213 C-0.0639500177,75.444 -0.328950018,73.934 0.440049982,72.839 C0.619049982,72.583 4.91404998,66.515 12.15305,60.312 C21.86005,51.995 32.26305,47.467 42.23605,47.215 C56.15305,46.869 69.31505,54.506 81.34905,69.93 C82.17105,70.984 81.98305,72.507 80.92905,73.329 C79.87405,74.152 78.35205,73.965 77.52905,72.91 C66.49205,58.764 54.66305,51.746 42.35805,52.058 C20.81305,52.601 4.56604998,75.393 4.40504998,75.622 C3.93404998,76.294 3.18304998,76.653 2.42004998,76.653" id="Fill-215" fill="#EFB14D"></path>
            <path d="M123.07905,97.091 C122.98805,97.091 122.89705,97.086 122.80505,97.075 C121.47605,96.926 120.51905,95.727 120.66905,94.397 C122.85305,74.957 130.06805,61.56 142.11405,54.575 C150.74505,49.571 161.97905,47.987 174.60305,49.996 C184.01805,51.493 190.85305,54.418 191.13905,54.542 C192.36705,55.073 192.93205,56.499 192.40105,57.727 C191.87105,58.954 190.44505,59.52 189.21705,58.989 C188.87205,58.841 163.09905,47.991 144.52505,58.776 C133.89205,64.952 127.48505,77.118 125.48205,94.938 C125.34305,96.176 124.29505,97.091 123.07905,97.091" id="Fill-216" fill="#EFB14D"></path>
            <path d="M56.04405,26.071 C53.62705,25.353 51.17805,24.332 48.67805,24.657 C48.04905,24.738 47.39405,24.927 46.96805,25.397 C46.61705,25.784 46.46705,26.312 46.37005,26.825 C45.83805,29.619 46.57805,32.63 48.34305,34.86 C50.10805,37.091 52.86805,38.502 55.71005,38.627 C59.55905,38.796 63.10705,36.765 66.56805,35.073 C69.93705,33.427 73.50205,32.035 77.24005,31.742 C78.61605,31.634 83.98605,31.268 82.92205,28.562 C82.28405,26.94 78.20405,27.228 76.91005,27.247 C69.81805,27.359 62.98305,28.136 56.04405,26.071" id="Fill-217" fill="#0A0B09"></path>
            <path d="M38.45305,98.524 C37.59905,98.524 36.77105,98.072 36.33005,97.271 C35.68405,96.1 36.11005,94.626 37.28205,93.98 L78.99705,70.994 C80.16905,70.349 81.64105,70.774 82.28705,71.946 C82.93305,73.118 82.50605,74.591 81.33505,75.236 L39.62005,98.224 C39.24905,98.428 38.84805,98.524 38.45305,98.524" id="Fill-218" fill="#F27A5D"></path>
            <path d="M91.63605,88.427 L39.31905,86.646 C39.13405,86.634 38.94805,86.626 38.76005,86.626 C33.79405,86.626 29.76905,90.652 29.76905,95.618 C29.76905,99.794 32.61605,103.304 36.47505,104.315 L36.47705,104.315 C36.92605,104.434 37.39005,104.518 37.86405,104.564 L88.09805,113.57 C88.91705,113.805 89.76805,113.96 90.64405,114.026 L90.68105,114.033 L90.68105,114.029 C90.99705,114.053 91.31505,114.068 91.63605,114.068 C98.71705,114.068 104.45705,108.328 104.45705,101.248 C104.45705,94.167 98.71705,88.427 91.63605,88.427" id="Fill-219" fill="#EFB14D"></path>
            <path d="M158.58905,6.273 L139.27805,6.273 L139.27805,2.002 L158.58905,2.002 C159.40805,2.002 160.07105,2.665 160.07105,3.483 L160.07105,4.793 C160.07105,5.61 159.40805,6.273 158.58905,6.273" id="Fill-220" fill="#75848A"></path>
            <path d="M142.74705,8.276 L127.69405,8.276 C126.10905,8.276 124.82405,6.991 124.82405,5.406 L124.82405,2.87 C124.82405,1.285 126.10905,2.84217094e-14 127.69405,2.84217094e-14 L142.74705,2.84217094e-14 C144.33205,2.84217094e-14 145.61705,1.285 145.61705,2.87 L145.61705,5.406 C145.61705,6.991 144.33205,8.276 142.74705,8.276" id="Fill-221" fill="#0A0B09"></path>
            <path d="M146.00205,7.079 C146.03505,7.571 146.31405,8.007 146.55005,8.439 C147.26605,9.75 147.61305,11.486 146.69405,12.664 C146.25105,13.232 145.57805,13.579 145.09505,14.114 C144.61305,14.65 144.38205,15.566 144.91605,16.053 C145.18605,16.3 145.57905,16.36 145.94505,16.353 C147.12705,16.327 148.23905,15.705 149.06105,14.855 C149.88205,14.006 150.44705,12.943 150.93005,11.864 C151.80905,9.902 152.71205,6.594 150.73605,4.904 C149.32205,3.696 145.87305,5.139 146.00205,7.079" id="Fill-222" fill="#75848A"></path>
            <path d="M168.26805,98.524 C167.02605,98.524 165.96805,97.574 165.85805,96.313 L160.93805,40.146 C160.82105,38.813 161.80705,37.639 163.13905,37.521 C164.47505,37.404 165.64705,38.391 165.76305,39.724 L170.68405,95.891 C170.80005,97.224 169.81505,98.398 168.48205,98.515 C168.41005,98.521 168.33805,98.524 168.26805,98.524" id="Fill-223" fill="#A0ACB0"></path>
            <path d="M133.65405,34.038 C132.55605,34.038 131.56105,33.286 131.29805,32.17 C130.99205,30.868 131.80005,29.564 133.10205,29.258 L146.06005,26.212 C147.36305,25.905 148.66605,26.713 148.97205,28.016 C149.27805,29.317 148.47105,30.622 147.16905,30.928 L134.21105,33.974 C134.02405,34.018 133.83805,34.038 133.65405,34.038" id="Fill-224" fill="#A0ACB0"></path>
            <path d="M110.98805,104.01 L91.52705,104.01 C90.53605,104.01 89.64505,103.405 89.27705,102.484 L67.90605,48.929 C67.41005,47.687 68.01605,46.277 69.25805,45.781 C70.50005,45.286 71.91005,45.892 72.40605,47.134 L93.16805,99.165 L108.21005,99.165 C107.73805,94.949 107.20605,86.547 108.84105,77.076 C110.20105,69.199 112.78805,62.225 116.53005,56.346 C121.24705,48.936 127.79405,43.283 135.99205,39.546 C137.12905,39.027 138.47305,39.459 139.09605,40.542 L170.37005,94.895 C171.03705,96.054 170.63805,97.534 169.47905,98.202 C168.31905,98.868 166.83805,98.47 166.17105,97.311 L136.02405,44.915 C129.63605,48.222 124.47405,52.912 120.65805,58.882 C117.26205,64.196 114.90005,70.549 113.63905,77.763 C111.46005,90.229 113.35205,101.049 113.37205,101.157 C113.49905,101.863 113.30605,102.59 112.84605,103.141 C112.38505,103.69 111.70505,104.01 110.98805,104.01" id="Fill-225" fill="#F27A5D"></path>
            <path d="M171.01405,46.071 L151.12405,46.071 C147.97405,46.071 145.25405,43.862 144.60905,40.779 L141.54805,26.165 C140.57605,21.522 144.11905,17.16 148.86205,17.16 L177.77405,17.16 C180.19805,17.16 182.00905,19.391 181.51205,21.764 L177.52905,40.779 C176.88405,43.862 174.16505,46.071 171.01405,46.071" id="Fill-226" fill="#F27A5D"></path>
            <path d="M91.52805,109.281 C87.09005,109.281 83.49405,105.687 83.49405,101.249 C83.49405,96.812 87.09005,93.214 91.52805,93.214 C95.96505,93.214 99.56305,96.812 99.56305,101.249 C99.56305,105.687 95.96505,109.281 91.52805,109.281 Z M91.52805,89.887 C85.25205,89.887 80.16605,94.973 80.16605,101.249 C80.16605,107.522 85.25205,112.609 91.52805,112.609 C97.80105,112.609 102.88805,107.522 102.88805,101.249 C102.88805,94.973 97.80105,89.887 91.52805,89.887 L91.52805,89.887 Z" id="Fill-227" fill="#75848A"></path>
            <path d="M94.35405,101.248 C94.35405,102.809 93.08805,104.074 91.52705,104.074 C89.96605,104.074 88.70005,102.809 88.70005,101.248 C88.70005,99.687 89.96605,98.421 91.52705,98.421 C93.08805,98.421 94.35405,99.687 94.35405,101.248" id="Fill-228" fill="#373F43"></path>
            <polyline id="Fill-229" fill="#373F43" points="87.53605 117.887 85.27005 117.158 95.51705 85.288 97.78305 86.017 87.53605 117.887"></polyline>
            <path d="M101.10605,86.579 L93.11805,86.579 C92.21305,86.579 91.48005,85.846 91.48005,84.94 L91.48005,83.493 C91.48005,82.589 92.21305,81.855 93.11805,81.855 L101.10605,81.855 C102.01005,81.855 102.74305,82.589 102.74305,83.493 L102.74305,84.94 C102.74305,85.846 102.01005,86.579 101.10605,86.579" id="Fill-230" fill="#0A0B09"></path>
            <path d="M90.45705,119.695 L82.47005,119.695 C81.56505,119.695 80.83205,118.962 80.83205,118.058 L80.83205,116.61 C80.83205,115.706 81.56505,114.973 82.47005,114.973 L90.45705,114.973 C91.36205,114.973 92.09505,115.706 92.09505,116.61 L92.09505,118.058 C92.09505,118.962 91.36205,119.695 90.45705,119.695" id="Fill-231" fill="#0A0B09"></path>
        </g>
    </g>
</svg>